# xmcd
#
# Track frame offsets:
#	150
#	4252
#	19290
#	33265
#	50512
#	67627
#	82390
#	84567
#	101757
#	118190
#	134520
#	149827
#	162290
#	176665
#	191557
#
# Disc length: 2922 seconds
#
# Revision: 1
# Processed by: cddbd v1.4PL0 Copyright (c) Steve Scherf et al.
# Submitted via: audiograbber 1.81.02
#
DISCID=d70b680f
DTITLE=Illmatic - Illastration
DYEAR=1998
DGENRE=Rap
TTITLE0=Welcome 2 Illastration
TTITLE1=Can I get down
TTITLE2=2 High 2 get Ova
TTITLE3=The MC
TTITLE4=Wishin´
TTITLE5=Here he come
TTITLE6=The comin´
TTITLE7=The rain
TTITLE8=Friends
TTITLE9=I got u stripped
TTITLE10=Psychosomatic
TTITLE11=Make money
TTITLE12=Say I´m your No.1
TTITLE13=Thinkin´ of u
TTITLE14=If I lay down
EXTD=
EXTT0=
EXTT1=
EXTT2=
EXTT3=
EXTT4=
EXTT5=
EXTT6=
EXTT7=
EXTT8=
EXTT9=
EXTT10=
EXTT11=
EXTT12=
EXTT13=
EXTT14=
PLAYORDER=
